# This file uses centimeters as units for non-parametric coordinates.

mtllib DiningRoomDivider.mtl
g default
v 1400.000000 100.000000 -4000.000000
v -600.000000 100.000000 -4000.000000
v 1400.000000 1100.000000 -4000.000000
v -600.000000 1100.000000 -4000.000000
v -600.000000 100.000000 -4100.000000
v -600.000000 1100.000000 -4100.000000
v 1400.000000 100.000000 -4100.000000
v 1400.000000 1100.000000 -4100.000000
v 0.000000 1100.000000 -4000.000000
v 0.000000 1100.000000 -4100.000000
v 805.986633 1100.000000 -4000.000000
v 805.986633 1100.000000 -4100.000000
v 1400.000000 800.000000 -4000.000000
v -600.000000 800.000000 -4000.000000
v -600.000000 800.000000 -4100.000000
v 1400.000000 800.000000 -4100.000000
v -2.928589 100.000000 -4002.928711
v -9.999023 100.000000 -4000.000000
v 0.000000 100.000000 -4009.999023
v -9.999023 809.999023 -4000.000000
v -2.928589 802.928650 -4002.928711
v 0.000000 800.000000 -4009.999023
v 806.706421 100.000000 -4002.928711
v 803.777771 100.000000 -4009.999023
v 813.776794 100.000000 -4000.000000
v 813.776794 809.999023 -4000.000000
v 806.706421 802.928650 -4002.928711
v 803.777771 800.000000 -4009.999023
v -2.928589 100.000000 -4097.071289
v 0.000000 100.000000 -4090.000977
v -9.999023 100.000000 -4100.000000
v -9.999023 809.999023 -4100.000000
v -2.928589 802.928650 -4097.071289
v 0.000000 800.000000 -4090.000977
v 806.706421 100.000000 -4097.071289
v 813.776794 100.000000 -4100.000000
v 803.777771 100.000000 -4090.000977
v 813.776794 809.999023 -4100.000000
v 806.706421 802.928650 -4097.071289
v 803.777771 800.000000 -4090.000977
v 1400.000000 108.203859 -4000.000000
v 813.776794 108.321046 -4000.000000
v 806.706421 108.238183 -4002.928711
v 803.777771 108.204001 -4009.999023
v 803.777771 108.203859 -4090.000977
v 806.706421 108.238183 -4097.071289
v 813.776794 108.321190 -4100.000000
v 1400.000000 108.204001 -4100.000000
v 1400.000000 791.489075 -4100.000000
v 813.776794 801.366455 -4100.000000
v 806.706421 794.381897 -4097.071289
v 803.777771 791.488831 -4090.000977
v 803.777771 791.489075 -4009.999023
v 806.706421 794.381897 -4002.928711
v 813.776794 801.366272 -4000.000000
v 1400.000000 791.488831 -4000.000000
v -599.999878 790.829590 -4000.000000
v -9.998901 800.697571 -4000.000000
v -2.928589 793.719604 -4002.928711
v 0.000000 790.829285 -4009.999023
v 0.000000 790.829590 -4090.000977
v -2.928589 793.719604 -4097.071289
v -9.999023 800.697327 -4100.000000
v -599.999878 790.829590 -4100.000000
v -600.000000 108.936569 -4000.000000
v -9.999023 109.064221 -4000.000000
v -2.928589 108.973748 -4002.928711
v 0.000000 108.936360 -4009.999023
v 0.000000 108.936569 -4090.000977
v -2.928589 108.973748 -4097.071289
v -9.999023 109.064011 -4100.000000
v -600.000000 108.936569 -4100.000000
vt 0.813437 0.567335
vt 0.926050 0.569754
vt 0.818227 0.544795
vt 0.924839 0.545255
vt 0.659492 0.008945
vt 0.544369 0.156050
vt 0.539048 0.013386
vt 0.960440 0.228020
vt 0.662260 0.218144
vt 0.549431 0.362052
vt 0.544791 0.221994
vt 0.962563 0.017655
vt 0.954320 0.160194
vt 0.951279 0.221073
vt 0.834434 0.155679
vt 0.831107 0.215064
vt 0.665098 0.154000
vt 0.667634 0.213213
vt 0.546171 0.216941
vt 0.951766 0.367867
vt 0.948526 0.427568
vt 0.833359 0.362938
vt 0.829446 0.420976
vt 0.667171 0.360517
vt 0.669003 0.418864
vt 0.550946 0.421859
vt 0.806508 0.468613
vt 0.901147 0.457822
vt 0.818279 0.532610
vt 0.924892 0.533071
vt 0.813713 0.554465
vt 0.926326 0.556884
vt 0.901144 0.468638
vt 0.843008 0.010784
vt 0.842369 0.220747
vt 0.806510 0.457797
vt 0.813402 0.568944
vt 0.661052 0.008882
vt 0.806507 0.469965
vt 0.666579 0.152453
vt 0.926015 0.571363
vt 0.841449 0.010689
vt 0.818286 0.531088
vt 0.924898 0.531548
vt 0.832981 0.154103
vt 0.901144 0.469990
vt 0.840839 0.220647
vt 0.813748 0.552856
vt 0.831943 0.361383
vt 0.806511 0.456445
vt 0.926361 0.555275
vt 0.818220 0.546318
vt 0.663791 0.218089
vt 0.901148 0.456470
vt 0.668633 0.359005
vt 0.924832 0.546778
vt 0.962465 0.019327
vt 0.842908 0.012480
vt 0.819535 0.531093
vt 0.841349 0.012367
vt 0.819529 0.532616
vt 0.819476 0.544800
vt 0.663849 0.219738
vt 0.819470 0.546323
vt 0.662317 0.219811
vt 0.544846 0.223637
vt 0.549385 0.360356
vt 0.667099 0.358779
vt 0.668583 0.357316
vt 0.923536 0.546773
vt 0.923543 0.545250
vt 0.923595 0.533065
vt 0.923602 0.531542
vt 0.833075 0.152383
vt 0.834550 0.153910
vt 0.954410 0.158468
vt 0.544310 0.154189
vt 0.665011 0.152091
vt 0.666517 0.150596
vt 0.924540 0.571331
vt 0.924574 0.569722
vt 0.924851 0.556852
vt 0.924885 0.555243
vt 0.832049 0.359563
vt 0.833491 0.361066
vt 0.951869 0.366043
vt 0.539117 0.015210
vt 0.659564 0.010794
vt 0.661124 0.010712
vt 0.814840 0.568975
vt 0.814874 0.567366
vt 0.815151 0.554496
vt 0.815185 0.552887
vt 0.840725 0.222441
vt 0.842254 0.222559
vt 0.960328 0.229807
vn 0.002706 0.000000 0.999996
vn 0.611801 0.000000 0.791012
vn 0.006858 -0.603374 0.797429
vn 0.000034 -0.002985 0.999996
vn 0.999181 0.000000 0.040469
vn 0.011397 -0.999084 0.041253
vn -0.000232 -0.998896 -0.046978
vn -0.000922 -0.999999 -0.000925
vn -0.707465 0.000000 -0.706748
vn -0.004979 0.000000 -0.999988
vn -0.006854 -0.999977 -0.000231
vn -0.999436 0.000000 -0.033594
vn 0.000000 0.000000 1.000000
vn 0.000000 0.000000 1.000000
vn 0.002706 0.000000 -0.999996
vn 0.000000 0.000000 -1.000000
vn 0.000000 0.000000 -1.000000
vn 0.000034 -0.002985 -0.999996
vn 0.000000 0.000000 -1.000000
vn 0.000000 -0.996710 -0.081053
vn 0.000000 -0.996710 0.081051
vn 0.000000 0.000000 1.000000
vn -0.004979 0.000000 0.999988
vn -0.000232 -0.998896 0.046978
vn -0.000032 -0.002996 0.999996
vn 0.000000 0.000000 1.000000
vn 0.000000 0.000000 1.000000
vn 0.000000 0.000000 1.000000
vn 0.000000 0.000000 1.000000
vn 0.000000 0.000000 1.000000
vn 0.000000 0.000000 -1.000000
vn 0.000000 0.000000 -1.000000
vn -0.000032 -0.002996 -0.999996
vn 0.000000 0.000000 -1.000000
vn 0.000000 0.000000 -1.000000
vn 0.000000 0.000000 -1.000000
vn -0.010578 -0.999094 0.041220
vn 0.011397 -0.999084 -0.041253
vn -0.010578 -0.999094 -0.041220
vn -0.006854 -0.999977 0.000231
vn -0.999436 0.000000 0.033594
vn 0.999181 0.000000 -0.040469
vn 0.000998 -0.999999 -0.001001
vn 0.007419 -0.999972 -0.000250
vn 0.007419 -0.999972 0.000250
vn 0.000998 -0.999999 0.001001
vn 0.000251 -0.998690 0.051164
vn 0.000000 -0.996099 0.088245
vn 0.000000 -0.996099 -0.088244
vn 0.000251 -0.998690 -0.051163
vn -0.000922 -0.999999 0.000925
vn -0.006368 -0.603685 0.797197
vn -0.707461 0.000000 0.706752
vn 0.611803 0.000000 -0.791010
vn 0.006857 -0.603374 -0.797429
vn -0.006368 -0.603685 -0.797197
vn -0.002717 0.000000 0.999996
vn 0.000000 0.000000 1.000000
vn -0.611564 0.000000 0.791195
vn -0.999180 0.000000 0.040489
vn -0.999180 0.000000 -0.040489
vn -0.611560 0.000000 -0.791198
vn -0.002717 0.000000 -0.999996
vn 0.000000 0.000000 -1.000000
vn 0.000000 0.000000 1.000000
vn 0.004950 0.000000 0.999988
vn 0.707589 0.000000 0.706624
vn 0.999436 0.000000 0.033586
vn 0.999436 0.000000 -0.033586
vn 0.707582 0.000000 -0.706631
vn 0.004950 0.000000 -0.999988
vn 0.000000 0.000000 -1.000000
s 1
g Wall_DiningRoomDivider
usemtl Wall_DiningRoomDividerSG
f 58/78/1 59/79/2 21/40/3 20/17/4
f 59/80/2 60/81/5 22/2/6 21/41/3
f 36/9/7 35/53/8 46/63/9 47/65/10
f 35/52/8 37/3/11 45/62/12 46/64/9
f 57/77/13 58/78/1 20/17/4 14/6/14
f 63/85/15 64/86/16 15/20/17 32/22/18
f 36/9/7 47/65/10 48/66/19 7/11/20
f 1/12/21 41/57/22 42/58/23 25/34/24
f 26/15/25 13/13/26 3/14/27 11/16/28
f 20/17/4 26/15/25 11/16/28 9/18/29
f 14/6/14 20/17/4 9/18/29 4/19/30
f 32/22/18 15/20/17 6/21/31 10/23/32
f 38/24/33 32/22/18 10/23/32 12/25/34
f 16/10/35 38/24/33 12/25/34 8/26/36
f 28/33/37 22/27/6 34/36/38 40/28/39
f 24/29/40 44/61/41 45/62/12 37/3/11
f 22/2/6 60/81/5 61/82/42 34/32/38
f 29//43 30//44 19//45 17//46 18//47 2//48 5//49 31//50
f 35//8 36//7 7//20 1//21 25//24 23//51 24//40 37//11
f 20/17/4 21/40/3 27/45/52 26/15/25
f 21/39/3 22/27/6 28/33/37 27/46/52
f 24/29/40 23/43/51 43/59/53 44/61/41
f 23/42/51 25/34/24 42/58/23 43/60/53
f 61/82/42 62/83/54 33/51/55 34/32/38
f 62/84/54 63/85/15 32/22/18 33/49/55
f 34/36/38 33/50/55 39/54/56 40/28/39
f 33/49/55 32/22/18 38/24/33 39/55/56
f 55/75/57 56/76/58 13/13/26 26/15/25
f 54/74/59 55/75/57 26/15/25 27/45/52
f 53/72/60 54/73/59 27/44/52 28/30/37
f 52/71/61 53/72/60 28/30/37 40/4/39
f 51/70/62 52/71/61 40/4/39 39/56/56
f 50/68/63 51/69/62 39/55/56 38/24/33
f 49/67/64 50/68/63 38/24/33 16/10/35
f 48/66/19 47/65/10 50/68/63 49/67/64
f 47/65/10 46/63/9 51/69/62 50/68/63
f 46/64/9 45/62/12 52/71/61 51/70/62
f 45/62/12 44/61/41 53/72/60 52/71/61
f 44/61/41 43/59/53 54/73/59 53/72/60
f 43/60/53 42/58/23 55/75/57 54/74/59
f 42/58/23 41/57/22 56/76/58 55/75/57
f 65/87/65 66/88/66 58/78/1 57/77/13
f 66/88/66 67/89/67 59/79/2 58/78/1
f 67/90/67 68/91/68 60/81/5 59/80/2
f 61/82/42 60/81/5 68/91/68 69/92/69
f 69/92/69 70/93/70 62/83/54 61/82/42
f 70/94/70 71/95/71 63/85/15 62/84/54
f 71/95/71 72/96/72 64/86/16 63/85/15
f 18/5/47 66/88/66 65/87/65 2/7/48
f 18/5/47 17/38/46 67/89/67 66/88/66
f 17/37/46 19/1/45 68/91/68 67/90/67
f 69/92/69 68/91/68 19/1/45 30/31/44
f 30/31/44 29/48/43 70/93/70 69/92/69
f 29/47/43 31/35/50 71/95/71 70/94/70
f 5/8/49 72/96/72 71/95/71 31/35/50
