# This file uses centimeters as units for non-parametric coordinates.

mtllib DiningRoomWall02.mtl
g default
v 1400.000000 100.000000 -1600.000000
v 1400.000000 100.000000 -2200.000021
v 1400.000000 350.000000 -1600.000000
v 1400.000000 350.000000 -2200.000021
v 1400.000000 100.000000 -2800.000164
v 1400.000000 350.000000 -2800.000164
v 1400.000000 100.000000 -3400.000551
v 1400.000000 350.000000 -3400.000551
v 1400.000000 100.000000 -4000.000572
v 1400.000000 350.000000 -4000.000572
v 1400.000000 600.000000 -1600.000000
v 1400.000000 600.000000 -2200.000021
v 1400.000000 600.000000 -2800.000164
v 1400.000000 600.000000 -3400.000551
v 1400.000000 600.000000 -4000.000572
v 1400.000000 850.000000 -1600.000000
v 1400.000000 850.000000 -2200.000021
v 1400.000000 850.000000 -2800.000164
v 1400.000000 850.000000 -3400.000551
v 1400.000000 850.000000 -4000.000572
v 1400.000000 1100.000000 -1600.000000
v 1400.000000 1100.000000 -2200.000021
v 1400.000000 1100.000000 -2800.000164
v 1400.000000 1100.000000 -3400.000551
v 1400.000000 1100.000000 -4000.000572
vt 0.030972 0.427073
vt 0.030866 0.378607
vt 0.147184 0.378352
vt 0.147290 0.426818
vt 0.263503 0.378098
vt 0.263609 0.426564
vt 0.379822 0.377843
vt 0.379927 0.426310
vt 0.496140 0.377589
vt 0.496246 0.426055
vt 0.030760 0.330141
vt 0.147078 0.329886
vt 0.263397 0.329632
vt 0.379715 0.329377
vt 0.496034 0.329123
vt 0.030654 0.281675
vt 0.146972 0.281420
vt 0.263291 0.281166
vt 0.379609 0.280911
vt 0.495928 0.280657
vt 0.030548 0.233209
vt 0.146866 0.232954
vt 0.263185 0.232700
vt 0.379503 0.232445
vt 0.495822 0.232191
vn -1.000000 0.000000 0.000000
vn -1.000000 0.000000 0.000000
vn -1.000000 0.000000 0.000000
vn -1.000000 0.000000 0.000000
vn -1.000000 0.000000 0.000000
vn -1.000000 0.000000 0.000000
vn -1.000000 0.000000 0.000000
vn -1.000000 0.000000 0.000000
vn -1.000000 0.000000 0.000000
vn -1.000000 0.000000 0.000000
vn -1.000000 0.000000 0.000000
vn -1.000000 0.000000 0.000000
vn -1.000000 0.000000 0.000000
vn -1.000000 0.000000 0.000000
vn -1.000000 0.000000 0.000000
vn -1.000000 0.000000 0.000000
vn -1.000000 0.000000 0.000000
vn -1.000000 0.000000 0.000000
vn -1.000000 0.000000 0.000000
vn -1.000000 0.000000 0.000000
vn -1.000000 0.000000 0.000000
vn -1.000000 0.000000 0.000000
vn -1.000000 0.000000 0.000000
vn -1.000000 0.000000 0.000000
vn -1.000000 0.000000 0.000000
vn -1.000000 0.000000 0.000000
vn -1.000000 0.000000 0.000000
vn -1.000000 0.000000 0.000000
vn -1.000000 0.000000 0.000000
vn -1.000000 0.000000 0.000000
vn -1.000000 0.000000 0.000000
vn -1.000000 0.000000 0.000000
vn -1.000000 0.000000 0.000000
vn -1.000000 0.000000 0.000000
vn -1.000000 0.000000 0.000000
vn -1.000000 0.000000 0.000000
vn -1.000000 0.000000 0.000000
vn -1.000000 0.000000 0.000000
vn -1.000000 0.000000 0.000000
vn -1.000000 0.000000 0.000000
vn -1.000000 0.000000 0.000000
vn -1.000000 0.000000 0.000000
vn -1.000000 0.000000 0.000000
vn -1.000000 0.000000 0.000000
vn -1.000000 0.000000 0.000000
vn -1.000000 0.000000 0.000000
vn -1.000000 0.000000 0.000000
vn -1.000000 0.000000 0.000000
vn -1.000000 0.000000 0.000000
vn -1.000000 0.000000 0.000000
vn -1.000000 0.000000 0.000000
vn -1.000000 0.000000 0.000000
vn -1.000000 0.000000 0.000000
vn -1.000000 0.000000 0.000000
vn -1.000000 0.000000 0.000000
vn -1.000000 0.000000 0.000000
vn -1.000000 0.000000 0.000000
vn -1.000000 0.000000 0.000000
vn -1.000000 0.000000 0.000000
vn -1.000000 0.000000 0.000000
vn -1.000000 0.000000 0.000000
vn -1.000000 0.000000 0.000000
vn -1.000000 0.000000 0.000000
vn -1.000000 0.000000 0.000000
s off
g Wall_DiningRoom02
usemtl Wall_DiningRoom02SG
f 1/1/1 3/2/2 4/3/3 2/4/4
f 2/4/5 4/3/6 6/5/7 5/6/8
f 5/6/9 6/5/10 8/7/11 7/8/12
f 7/8/13 8/7/14 10/9/15 9/10/16
f 3/2/17 11/11/18 12/12/19 4/3/20
f 4/3/21 12/12/22 13/13/23 6/5/24
f 6/5/25 13/13/26 14/14/27 8/7/28
f 8/7/29 14/14/30 15/15/31 10/9/32
f 11/11/33 16/16/34 17/17/35 12/12/36
f 12/12/37 17/17/38 18/18/39 13/13/40
f 13/13/41 18/18/42 19/19/43 14/14/44
f 14/14/45 19/19/46 20/20/47 15/15/48
f 16/16/49 21/21/50 22/22/51 17/17/52
f 17/17/53 22/22/54 23/23/55 18/18/56
f 18/18/57 23/23/58 24/24/59 19/19/60
f 19/19/61 24/24/62 25/25/63 20/20/64
