# This file uses centimeters as units for non-parametric coordinates.

mtllib Floor_Diningroom_OBJ.mtl
g default
v 1400.000000 0.000000 -1600.000000
v -600.000000 0.000000 -1600.000000
v 1400.000000 100.000000 -1600.000000
v -600.000000 100.000000 -1600.000000
v -600.000000 0.000000 -6600.000000
v -600.000000 100.000000 -6600.000000
v 1400.000000 0.000000 -6600.000000
v 1400.000000 100.000000 -6600.000000
vt 0.569687 0.024961
vt 0.586630 0.981816
vt 0.969372 0.975039
vt 0.952428 0.018184
vn 0.000000 0.000000 1.000000
vn 0.000000 0.000000 1.000000
vn 0.000000 0.000000 1.000000
vn 0.000000 0.000000 1.000000
vn -1.000000 0.000000 0.000000
vn -1.000000 0.000000 0.000000
vn -1.000000 0.000000 0.000000
vn -1.000000 0.000000 0.000000
vn 0.000000 0.000000 -1.000000
vn 0.000000 0.000000 -1.000000
vn 0.000000 0.000000 -1.000000
vn 0.000000 0.000000 -1.000000
vn 1.000000 0.000000 0.000000
vn 1.000000 0.000000 0.000000
vn 1.000000 0.000000 0.000000
vn 1.000000 0.000000 0.000000
vn 0.000000 1.000000 0.000000
vn 0.000000 1.000000 0.000000
vn 0.000000 1.000000 0.000000
vn 0.000000 1.000000 0.000000
vn 0.000000 -1.000000 0.000000
vn 0.000000 -1.000000 0.000000
vn 0.000000 -1.000000 0.000000
vn 0.000000 -1.000000 0.000000
s off
g Floor_Diningroom
usemtl Floor_DiningroomSG
f 1//1 3//2 4//3 2//4
f 2//5 4//6 6//7 5//8
f 5//9 6//10 8//11 7//12
f 7//13 8//14 3//15 1//16
f 3/4/17 8/3/18 6/2/19 4/1/20
f 7//21 1//22 2//23 5//24
