# This file uses centimeters as units for non-parametric coordinates.

mtllib Wall_DiningRoom01.mtl
g default
v -600.000000 100.000000 -1600.000000
v -605.000000 100.000000 -1600.000000
v -600.000000 1100.000000 -1600.000000
v -605.000000 1100.000000 -1600.000000
v -605.000000 100.000000 -6600.000000
v -605.000000 1100.000000 -6600.000000
v -600.000000 100.000000 -6600.000000
v -600.000000 1100.000000 -6600.000000
v -605.000000 1100.000000 -2688.339844
v -600.000000 1100.000000 -2688.339844
v -600.000000 100.000000 -2688.339844
v -605.000000 100.000000 -2688.339844
v -605.000000 100.000000 -2927.811768
v -600.000000 100.000000 -2927.811523
v -600.000000 1100.000000 -2927.811768
v -605.000000 1100.000000 -2927.811523
v -600.000000 393.095001 -1600.000000
v -600.000000 393.095001 -2688.339844
v -600.000000 393.095001 -2927.811523
v -600.000000 393.095001 -6600.000000
v -605.000000 393.095001 -6600.000000
v -605.000000 393.095001 -2927.811523
v -605.000000 393.095001 -2688.339844
v -605.000000 393.095001 -1600.000000
v -605.000000 100.000000 -3417.949707
v -600.000000 100.000000 -3417.949463
v -600.000000 393.095001 -3417.949707
v -600.000000 1100.000000 -3417.949707
v -605.000000 1100.000000 -3417.949463
v -605.000000 393.095001 -3417.949707
v -605.000000 100.000000 -3676.131592
v -600.000000 100.000000 -3676.131104
v -600.000000 393.095001 -3676.131348
v -600.000000 1100.000000 -3676.131592
v -605.000000 1100.000000 -3676.131104
v -605.000000 393.095001 -3676.131592
v -605.000000 624.484863 -1600.000000
v -605.000000 624.484802 -2688.340088
v -605.000000 624.484863 -2927.811523
v -605.000000 624.484863 -3417.949707
v -605.000000 624.484863 -3676.131348
v -605.000000 624.484863 -6600.000000
v -600.000000 624.484863 -6600.000000
v -600.000000 624.484802 -3676.131592
v -600.000000 624.484802 -3417.949707
v -600.000000 624.484802 -2927.811523
v -600.000000 624.484863 -2688.339844
v -600.000000 624.484802 -1600.000000
v -605.000000 1100.000000 -2133.188721
v -600.000000 1100.000000 -2133.188721
v -600.000000 624.484863 -2133.188721
v -600.000000 393.095001 -2133.188721
v -600.000000 100.000000 -2133.188721
v -605.000000 100.000000 -2133.188721
v -605.000000 393.095001 -2133.188721
v -605.000000 624.484863 -2133.188721
v -605.000000 1100.000000 -1877.587646
v -600.000000 1100.000000 -1877.587646
v -600.000000 624.484802 -1877.587646
v -600.000000 393.095001 -1877.587646
v -600.000000 100.000000 -1877.587646
v -605.000000 100.000000 -1877.587646
v -605.000000 393.094971 -1877.587646
v -605.000000 624.484863 -1877.587646
v -605.000000 100.000000 -4471.797852
v -600.000000 100.000000 -4471.797852
v -600.000000 393.095001 -4471.797852
v -600.000000 624.484802 -4471.797852
v -600.000000 1100.000000 -4471.797852
v -605.000000 1100.000000 -4471.797852
v -605.000000 624.484863 -4471.797852
v -605.000000 393.095001 -4471.797852
v -605.000000 100.000000 -4728.367676
v -600.000000 100.000000 -4728.367188
v -600.000000 393.095001 -4728.367676
v -600.000000 624.484802 -4728.367676
v -600.000000 1100.000000 -4728.367676
v -605.000000 1100.000000 -4728.367188
v -605.000000 624.484863 -4728.367676
v -605.000000 393.095001 -4728.367676
v -600.000000 193.432831 -1600.000000
v -600.000000 193.432831 -1877.587646
v -600.000000 193.432831 -2133.188721
v -600.000000 193.432831 -2688.339844
v -600.000000 193.432831 -2927.811523
v -600.000000 193.432831 -3417.949707
v -600.000000 193.432831 -3676.131104
v -600.000000 193.432831 -4471.797852
v -600.000000 193.432831 -4728.367188
v -600.000000 193.432831 -6600.000000
v -605.000000 193.432831 -6600.000000
v -605.000000 193.432831 -4728.367676
v -605.000000 193.432831 -4471.797852
v -605.000000 193.432831 -3676.131592
v -605.000000 193.432831 -3417.949707
v -605.000000 193.432831 -2927.811768
v -605.000000 193.432831 -2688.339844
v -605.000000 193.432831 -2133.188721
v -605.000000 193.432816 -1877.587646
v -605.000000 193.432831 -1600.000000
v -605.000000 100.000000 -5969.255859
v -600.000000 100.000000 -5969.255859
v -600.000000 193.432831 -5969.255859
v -600.000000 393.095001 -5969.255859
v -600.000000 624.484802 -5969.255859
v -600.000000 1100.000000 -5969.255859
v -605.000000 1100.000000 -5969.255859
v -605.000000 624.484863 -5969.255859
v -605.000000 393.094971 -5969.255859
v -605.000000 193.432816 -5969.255859
v -605.000000 100.000000 -6230.810547
v -600.000000 100.000000 -6230.810547
v -600.000000 193.432831 -6230.810547
v -600.000000 393.095001 -6230.810547
v -600.000000 624.484802 -6230.810547
v -600.000000 1100.000000 -6230.810547
v -605.000000 1100.000000 -6230.810547
v -605.000000 624.484863 -6230.810547
v -605.000000 393.094971 -6230.810547
v -605.000000 193.432816 -6230.810547
vt 0.684288 0.881329
vt 0.260323 0.703308
vt 0.723425 0.881531
vt 0.723231 0.919348
vt 0.684093 0.919146
vt 0.814156 0.881998
vt 0.299389 0.703083
vt 0.813961 0.919815
vt 0.603988 0.918733
vt 0.299607 0.740830
vt 0.260541 0.741056
vt 0.169978 0.741579
vt 0.169760 0.703831
vt 0.379346 0.702621
vt 0.604183 0.880917
vt 0.379564 0.740368
vt 0.169572 0.671260
vt 0.604351 0.848285
vt 0.684456 0.848697
vt 0.260135 0.670737
vt 0.299200 0.670511
vt 0.379158 0.670049
vt 0.723593 0.848899
vt 0.421277 0.669804
vt 0.814324 0.849366
vt 0.431753 0.917846
vt 0.431948 0.880029
vt 0.561984 0.880701
vt 0.551075 0.669055
vt 0.551263 0.701626
vt 0.421467 0.702378
vt 0.551482 0.739374
vt 0.421684 0.740124
vt 0.561791 0.918515
vt 0.432116 0.847397
vt 0.562154 0.848068
vt 0.422130 0.817696
vt 0.551930 0.816946
vt 0.380013 0.817939
vt 0.300055 0.818402
vt 0.260989 0.818627
vt 0.813561 0.997530
vt 0.722830 0.997063
vt 0.683693 0.996861
vt 0.603588 0.996449
vt 0.561392 0.996231
vt 0.431353 0.995561
vt 0.170426 0.819151
vt 0.128729 0.819392
vt 0.855735 0.920030
vt 0.855334 0.997745
vt 0.128281 0.741820
vt 0.082998 0.742081
vt 0.083446 0.819653
vt 0.082780 0.704334
vt 0.128063 0.704072
vt 0.082591 0.671763
vt 0.127875 0.671501
vt 0.593335 0.739133
vt 0.856098 0.849582
vt 0.901465 0.849815
vt 0.901297 0.882446
vt 0.855929 0.882213
vt 0.901102 0.920264
vt 0.900702 0.997979
vt 0.389421 0.995345
vt 0.389821 0.917630
vt 0.593785 0.816704
vt 0.186618 0.994301
vt 0.592929 0.668815
vt 0.795359 0.667642
vt 0.795548 0.700213
vt 0.187018 0.916585
vt 0.187213 0.878768
vt 0.593120 0.701385
vt 0.795766 0.737960
vt 0.390016 0.879813
vt 0.187381 0.846137
vt 0.390184 0.847181
vt 0.796215 0.815532
vt 0.127787 0.656259
vt 0.082503 0.656521
vt 0.390263 0.831912
vt 0.187460 0.830867
vt 0.432195 0.832127
vt 0.169484 0.656018
vt 0.260047 0.655495
vt 0.379069 0.654807
vt 0.299112 0.655269
vt 0.421187 0.654564
vt 0.550987 0.653813
vt 0.592841 0.653571
vt 0.562234 0.832797
vt 0.604429 0.833015
vt 0.684534 0.833428
vt 0.814402 0.834097
vt 0.723672 0.833629
vt 0.856176 0.834311
vt 0.901543 0.834545
vt 0.795271 0.652400
vt 0.143871 0.994081
vt 0.837939 0.652153
vt 0.838027 0.667395
vt 0.838434 0.737713
vt 0.144271 0.916365
vt 0.144634 0.845917
vt 0.144713 0.830646
vt 0.838883 0.815286
vt 0.083933 0.916054
vt 0.898166 0.651804
vt 0.898254 0.667046
vt 0.838216 0.699966
vt 0.083533 0.993769
vt 0.084128 0.878237
vt 0.144466 0.878548
vt 0.898443 0.699618
vt 0.898661 0.737365
vt 0.084296 0.845606
vt 0.899110 0.814937
vt 0.084375 0.830335
vn 0.000000 0.000000 1.000000
vn 0.000000 0.000000 1.000000
vn 0.000000 0.000000 1.000000
vn 0.000000 0.000000 1.000000
vn -1.000000 0.000000 0.000000
vn -1.000000 0.000000 0.000000
vn -1.000000 0.000000 0.000000
vn -1.000000 0.000000 0.000000
vn 0.000000 0.000000 -1.000000
vn 0.000000 0.000000 -1.000000
vn 0.000000 0.000000 -1.000000
vn 0.000000 0.000000 -1.000000
vn 1.000000 0.000000 0.000000
vn 1.000000 0.000000 0.000000
vn 1.000000 0.000000 0.000000
vn 1.000000 0.000000 0.000000
vn 0.000000 1.000000 0.000000
vn 0.000000 1.000000 0.000000
vn 0.000000 1.000000 0.000000
vn 0.000000 1.000000 0.000000
vn 0.000000 1.000000 0.000000
vn 0.000000 1.000000 0.000000
vn 1.000000 0.000000 0.000000
vn 1.000000 0.000000 0.000000
vn 0.000000 -1.000000 0.000000
vn 0.000000 -1.000000 0.000000
vn 0.000000 -1.000000 0.000000
vn 0.000000 -1.000000 0.000000
vn -1.000000 0.000000 0.000000
vn -1.000000 0.000000 0.000000
vn 0.000000 -1.000000 0.000000
vn 0.000000 -1.000000 0.000000
vn 0.000000 -1.000000 0.000000
vn 0.000000 -1.000000 0.000000
vn 1.000000 0.000000 0.000000
vn 1.000000 0.000000 0.000000
vn 0.000000 1.000000 0.000000
vn 0.000000 1.000000 0.000000
vn -1.000000 0.000000 0.000000
vn -1.000000 0.000000 0.000000
vn 1.000000 0.000000 0.000000
vn 1.000000 0.000000 0.000000
vn 1.000000 0.000000 0.000000
vn 1.000000 0.000000 0.000000
vn 0.000000 0.000000 -1.000000
vn 0.000000 0.000000 -1.000000
vn -1.000000 0.000000 0.000000
vn -1.000000 0.000000 0.000000
vn -1.000000 0.000000 0.000000
vn -1.000000 0.000000 0.000000
vn 0.000000 0.000000 1.000000
vn 0.000000 0.000000 1.000000
vn 0.000000 -1.000000 0.000000
vn 0.000000 -1.000000 0.000000
vn 0.000000 1.000000 0.000000
vn 0.000000 1.000000 0.000000
vn 0.000000 -1.000000 0.000000
vn 0.000000 -1.000000 0.000000
vn 1.000000 0.000000 0.000000
vn 1.000000 0.000000 0.000000
vn 1.000000 0.000000 0.000000
vn 1.000000 0.000000 0.000000
vn 1.000000 0.000000 0.000000
vn 1.000000 0.000000 0.000000
vn 0.000000 1.000000 0.000000
vn 0.000000 1.000000 0.000000
vn -1.000000 0.000000 0.000000
vn -1.000000 0.000000 0.000000
vn -1.000000 0.000000 0.000000
vn -1.000000 0.000000 0.000000
vn -1.000000 0.000000 0.000000
vn -1.000000 0.000000 0.000000
vn -1.000000 0.000000 0.000000
vn -1.000000 0.000000 0.000000
vn -1.000000 0.000000 0.000000
vn -1.000000 0.000000 0.000000
vn -1.000000 0.000000 0.000000
vn -1.000000 0.000000 0.000000
vn 0.000000 0.000000 -1.000000
vn 0.000000 0.000000 -1.000000
vn 1.000000 0.000000 0.000000
vn 1.000000 0.000000 0.000000
vn 1.000000 0.000000 0.000000
vn 1.000000 0.000000 0.000000
vn 1.000000 0.000000 0.000000
vn 1.000000 0.000000 0.000000
vn -0.000000 0.000000 1.000000
vn -0.000000 0.000000 1.000000
vn 0.000000 1.000000 0.000000
vn 0.000000 1.000000 0.000000
vn 1.000000 0.000000 0.000000
vn 1.000000 0.000000 0.000000
vn 0.000000 -1.000000 0.000000
vn 0.000000 -1.000000 0.000000
vn -1.000000 0.000000 0.000000
vn -1.000000 0.000000 0.000000
vn 0.000000 1.000000 0.000000
vn 0.000000 1.000000 0.000000
vn 1.000000 0.000000 0.000000
vn 1.000000 0.000000 0.000000
vn 1.000000 0.000000 0.000000
vn 1.000000 0.000000 0.000000
vn 1.000000 0.000000 0.000000
vn 1.000000 0.000000 0.000000
vn -0.000000 -1.000000 0.000000
vn -0.000000 -1.000000 0.000000
vn -1.000000 0.000000 0.000000
vn -1.000000 0.000000 0.000000
vn -1.000000 0.000000 0.000000
vn -1.000000 0.000000 0.000000
vn -1.000000 0.000000 0.000000
vn -1.000000 0.000000 0.000000
vn 0.000000 -1.000000 0.000000
vn 0.000000 -1.000000 0.000000
vn 1.000000 0.000000 0.000000
vn 1.000000 0.000000 0.000000
vn 0.000000 1.000000 0.000000
vn 0.000000 1.000000 0.000000
vn -1.000000 0.000000 0.000000
vn -1.000000 0.000000 0.000000
vn 0.000000 -1.000000 0.000000
vn 0.000000 -1.000000 0.000000
vn 1.000000 0.000000 0.000000
vn 1.000000 0.000000 0.000000
vn 1.000000 0.000000 0.000000
vn 1.000000 0.000000 0.000000
vn 1.000000 0.000000 0.000000
vn 1.000000 0.000000 0.000000
vn 0.000000 1.000000 0.000000
vn 0.000000 1.000000 0.000000
vn -1.000000 0.000000 0.000000
vn -1.000000 0.000000 0.000000
vn -1.000000 0.000000 0.000000
vn -1.000000 0.000000 0.000000
vn -1.000000 0.000000 0.000000
vn -1.000000 0.000000 0.000000
vn 1.000000 0.000000 0.000000
vn 1.000000 0.000000 0.000000
vn 1.000000 0.000000 0.000000
vn 1.000000 0.000000 0.000000
vn 1.000000 0.000000 0.000000
vn 1.000000 0.000000 0.000000
vn 1.000000 0.000000 0.000000
vn 1.000000 0.000000 0.000000
vn 1.000000 0.000000 0.000000
vn 1.000000 0.000000 0.000000
vn 0.000000 0.000000 -1.000000
vn 0.000000 0.000000 -1.000000
vn -1.000000 0.000000 0.000000
vn -1.000000 0.000000 0.000000
vn -1.000000 0.000000 0.000000
vn -1.000000 0.000000 0.000000
vn -1.000000 0.000000 0.000000
vn -1.000000 0.000000 0.000000
vn -1.000000 0.000000 0.000000
vn -1.000000 0.000000 0.000000
vn -1.000000 0.000000 0.000000
vn -1.000000 0.000000 0.000000
vn -0.000000 0.000000 1.000000
vn -0.000000 0.000000 1.000000
vn 0.000000 -1.000000 0.000000
vn 0.000000 -1.000000 0.000000
vn 1.000000 0.000000 0.000000
vn 1.000000 0.000000 0.000000
vn 1.000000 0.000000 0.000000
vn 1.000000 0.000000 0.000000
vn 0.000000 1.000000 0.000000
vn 0.000000 1.000000 0.000000
vn -1.000000 0.000000 0.000000
vn -1.000000 0.000000 0.000000
vn -1.000000 0.000000 0.000000
vn -1.000000 0.000000 0.000000
vn -0.000000 -1.000000 0.000000
vn -0.000000 -1.000000 0.000000
vn 1.000000 0.000000 0.000000
vn 1.000000 0.000000 0.000000
vn 1.000000 0.000000 0.000000
vn 1.000000 0.000000 0.000000
vn 1.000000 0.000000 0.000000
vn 1.000000 0.000000 0.000000
vn 0.000000 1.000000 0.000000
vn 0.000000 1.000000 0.000000
vn -1.000000 0.000000 0.000000
vn -1.000000 0.000000 0.000000
vn -1.000000 0.000000 0.000000
vn -1.000000 0.000000 0.000000
vn -1.000000 0.000000 0.000000
vn -1.000000 0.000000 0.000000
s 1
g Wall_DiningRoom01
usemtl Wall_DiningRoom01SG1
f 24//1 17//2 48//3 37//4
s 2
f 22/1/5 23/3/6 38/4/7 39/5/8
s 3
f 20//9 21//10 42//11 43//12
s 4
f 18/2/13 19/7/14 46/10/15 47/11/16
s 5
f 9//17 10//18 15//19 16//20
f 49//21 50//22 10//18 9//17
s 4
f 51/12/23 52/13/24 18/2/13 47/11/16
s 6
f 12//25 11//26 53//27 54//28
s 2
f 23/3/6 55/6/29 56/8/30 38/4/7
s 7
f 25//31 26//32 14//33 13//34
s 4
f 19/7/14 27/14/35 45/16/36 46/10/15
s 5
f 16//20 15//19 28//37 29//38
s 2
f 39/5/8 40/9/39 30/15/40 22/1/5
s 4
f 83/17/41 84/20/42 18/2/13 52/13/24
f 85/21/43 86/22/44 27/14/35 19/7/14
s 3
f 90//45 91//46 21//10 20//9
s 2
f 95/18/47 96/19/48 22/1/5 30/15/40
f 97/23/49 98/25/50 55/6/29 23/3/6
s 1
f 100//51 81//52 17//2 24//1
s 7
f 31//53 32//54 26//32 25//31
s 5
f 29//38 28//37 34//55 35//56
s 7
f 65//57 66//58 32//54 31//53
s 4
f 87/24/59 88/29/60 67/30/61 33/31/62
f 67/30/61 68/32/63 44/33/64 33/31/62
s 5
f 35//56 34//55 69//65 70//66
s 2
f 71/26/67 72/27/68 36/28/69 41/34/70
f 93/35/71 94/36/72 36/28/69 72/27/68
f 38/4/7 56/8/30 49/42/73 9/43/74
f 39/5/8 38/4/7 9/43/74 16/44/75
f 29/45/76 40/9/39 39/5/8 16/44/75
f 35/46/77 41/34/70 40/9/39 29/45/76
f 70/47/78 71/26/67 41/34/70 35/46/77
s 3
f 43//12 42//11 6//79 8//80
s 4
f 34/37/81 44/33/64 68/32/63 69/38/82
f 28/39/83 45/16/36 44/33/64 34/37/81
f 46/10/15 45/16/36 28/39/83 15/40/84
f 47/11/16 46/10/15 15/40/84 10/41/85
f 50/48/86 51/12/23 47/11/16 10/41/85
s 1
f 37//4 48//3 3//87 4//88
s 5
f 57//89 58//90 50//22 49//21
s 4
f 58/49/91 59/52/92 51/12/23 50/48/86
s 6
f 54//28 53//27 61//93 62//94
s 2
f 49/42/73 56/8/30 64/50/95 57/51/96
s 5
f 3//97 58//90 57//89 4//98
s 4
f 48/53/99 59/52/92 58/49/91 3/54/100
f 17/55/101 60/56/102 59/52/92 48/53/99
f 81/57/103 82/58/104 60/56/102 17/55/101
s 6
f 62//94 61//93 1//105 2//106
s 2
f 99/60/107 100/61/108 24/62/109 63/63/110
f 64/50/95 63/63/110 24/62/109 37/64/111
f 57/51/96 64/50/95 37/64/111 4/65/112
s 7
f 73//113 74//114 66//58 65//57
s 4
f 69/38/82 68/32/63 76/59/115 77/68/116
s 5
f 70//66 69//65 77//117 78//118
s 2
f 78/66/119 79/67/120 71/26/67 70/47/78
s 7
f 101//121 102//122 74//114 73//113
s 4
f 89/70/123 103/71/124 104/72/125 75/75/126
f 104/72/125 105/76/127 76/59/115 75/75/126
f 77/68/116 76/59/115 105/76/127 106/80/128
s 5
f 78//118 77//117 106//129 107//130
s 2
f 107/69/131 108/73/132 79/67/120 78/66/119
f 108/73/132 109/74/133 80/77/134 79/67/120
f 109/74/133 110/78/135 92/79/136 80/77/134
s 4
f 61/81/137 82/58/104 81/57/103 1/82/138
f 53/86/139 83/17/41 82/58/104 61/81/137
f 11/87/140 84/20/42 83/17/41 53/86/139
f 26/88/141 86/22/44 85/21/43 14/89/142
f 32/90/143 87/24/59 86/22/44 26/88/141
f 66/91/144 88/29/60 87/24/59 32/90/143
f 74/92/145 89/70/123 88/29/60 66/91/144
f 102/100/146 103/71/124 89/70/123 74/92/145
s 3
f 5//147 91//46 90//45 7//148
s 2
f 73/83/149 92/79/136 110/78/135 101/84/150
f 65/85/151 93/35/71 92/79/136 73/83/149
f 31/93/152 94/36/72 93/35/71 65/85/151
f 25/94/153 95/18/47 94/36/72 31/93/152
f 13/95/154 96/19/48 95/18/47 25/94/153
f 54/96/155 98/25/50 97/23/49 12/97/156
f 62/98/157 99/60/107 98/25/50 54/96/155
f 2/99/158 100/61/108 99/60/107 62/98/157
s 1
f 1//159 81//52 100//51 2//160
s 7
f 111//161 112//162 102//122 101//121
s 4
f 112/102/163 113/103/164 103/71/124 102/100/146
f 106/80/128 105/76/127 115/104/165 116/108/166
s 5
f 107//130 106//129 116//167 117//168
s 2
f 117/101/169 118/105/170 108/73/132 107/69/131
f 101/84/150 110/78/135 120/106/171 111/107/172
s 7
f 7//173 112//162 111//161 5//174
s 4
f 7/110/175 90/111/176 113/103/164 112/102/163
f 114/112/177 113/103/164 90/111/176 20/116/178
f 43/117/179 115/104/165 114/112/177 20/116/178
f 116/108/166 115/104/165 43/117/179 8/119/180
s 5
f 117//168 116//167 8//181 6//182
s 2
f 42/109/183 118/105/170 117/101/169 6/113/184
f 21/114/185 119/115/186 118/105/170 42/109/183
f 91/118/187 120/106/171 119/115/186 21/114/185
f 111/107/172 120/106/171 91/118/187 5/120/188
